<?xml version="1.0" standalone="no"?>
<!DOCTYPE svg PUBLIC "-//W3C//DTD SVG 20010904//EN"
 "http://www.w3.org/TR/2001/REC-SVG-20010904/DTD/svg10.dtd">
<svg version="1.0" xmlns="http://www.w3.org/2000/svg"
 width="463.000000pt" height="483.000000pt" viewBox="0 0 463.000000 483.000000"
 preserveAspectRatio="xMidYMid meet">

<g transform="translate(0.000000,483.000000) scale(0.100000,-0.100000)"
fill="#000000" stroke="none">
<path d="M860 4451 c-92 -28 -173 -99 -216 -187 l-29 -59 -5 -704 -5 -704 -51
-12 c-57 -13 -104 -42 -132 -83 -11 -15 -42 -100 -71 -190 -57 -182 -60 -219
-36 -367 8 -49 15 -93 15 -96 0 -3 -27 -9 -59 -12 -128 -11 -224 -134 -180
-229 5 -13 73 -75 149 -138 157 -130 139 -101 221 -360 l52 -164 282 -281
c241 -239 287 -289 313 -343 41 -83 53 -150 50 -263 l-3 -94 -98 -5 c-105 -5
-117 -12 -117 -60 0 -15 5 -31 12 -38 9 -9 318 -12 1328 -12 1263 0 1318 1
1333 18 21 23 22 56 1 76 -12 12 -38 16 -115 16 l-99 0 0 108 c0 70 6 128 16
163 33 114 64 152 354 439 l277 275 52 165 c81 258 67 233 197 340 155 127
184 160 184 208 0 50 -36 110 -88 146 -32 23 -56 31 -102 34 -33 2 -60 8 -60
12 0 5 7 44 15 87 26 134 21 193 -31 360 -26 81 -55 165 -65 185 -30 58 -110
108 -175 108 l-23 0 -3 708 -3 707 -28 57 c-35 72 -98 137 -162 168 l-50 25
-1410 2 c-775 1 -1421 -2 -1435 -6z m2837 -130 c41 -19 103 -90 103 -118 0
-11 -251 -13 -1525 -13 -839 0 -1525 2 -1525 5 0 15 31 63 58 88 62 59 -13 56
1477 56 1325 1 1371 0 1412 -18z m133 -418 c0 -202 -2 -208 -41 -207 -16 1
-711 2 -1544 3 l-1515 1 0 185 0 185 1550 0 1550 0 0 -167z m-1528 -333 l1531
0 -6 -652 c-4 -406 -10 -667 -17 -690 -15 -51 -91 -133 -143 -152 -34 -13 -98
-16 -325 -18 -155 -2 -282 0 -282 3 0 4 11 31 25 61 91 200 91 486 0 685 -45
99 -168 255 -239 303 -30 21 -35 32 -49 104 -19 94 -37 123 -97 154 -44 22
-50 22 -425 22 l-381 0 -48 -30 c-51 -33 -66 -59 -87 -155 -12 -55 -19 -65
-85 -128 -128 -119 -202 -235 -245 -382 -20 -68 -24 -102 -24 -230 0 -163 18
-251 70 -355 21 -42 23 -49 8 -52 -9 -2 -145 -1 -304 2 l-287 5 -44 31 c-50
36 -103 117 -112 171 -8 52 -8 1298 1 1307 4 3 13 4 21 1 7 -3 702 -5 1544 -5z
m331 -300 c19 0 30 -23 41 -82 l7 -38 -43 0 c-75 0 -112 -47 -71 -92 13 -15
32 -18 102 -19 l86 0 55 -64 c30 -35 56 -68 58 -74 2 -6 -63 -9 -175 -8 l-178
2 -3 66 c-3 60 -5 67 -28 78 -20 9 -32 8 -52 -1 -22 -11 -28 -21 -30 -56 l-3
-42 -125 0 -124 0 0 35 c0 37 -28 75 -55 75 -9 0 -27 -11 -40 -25 -20 -19 -25
-34 -25 -77 l0 -53 -175 -1 c-96 0 -175 3 -175 8 0 4 28 37 61 73 l61 65 88 0
c97 0 120 11 120 55 0 33 -36 55 -91 55 l-47 0 13 51 c8 29 18 55 22 60 14 13
57 14 388 11 176 -1 328 -2 338 -2z m-953 -504 c0 -8 -16 -87 -35 -175 -19
-88 -35 -173 -35 -189 0 -40 28 -72 69 -80 l33 -7 -2 -165 c0 -90 -2 -165 -3
-166 -1 -2 -26 32 -55 75 -93 139 -128 274 -119 452 5 99 34 225 59 257 15 17
88 16 88 -2z m253 -21 c-7 -46 10 -65 57 -65 37 0 37 0 43 -46 5 -50 11 -58
44 -68 34 -11 75 34 71 77 l-3 32 128 3 127 3 0 -35 c0 -48 9 -66 38 -77 42
-16 72 12 72 66 l0 45 50 0 c58 0 81 24 61 67 -6 13 -11 26 -11 29 0 3 30 4
67 2 l68 -3 37 -160 c20 -88 37 -163 37 -167 1 -5 -245 -8 -545 -8 -445 0
-545 2 -541 13 3 7 19 76 36 153 18 76 34 147 37 157 4 14 17 17 69 17 l64 0
-6 -35z m1045 -17 c43 -111 47 -133 47 -263 0 -108 -4 -143 -23 -205 -29 -91
-80 -191 -127 -245 l-34 -40 -1 173 0 172 30 0 c36 0 80 39 80 70 0 11 -18
102 -40 201 -22 99 -40 182 -40 185 0 2 20 4 44 4 43 0 44 0 64 -52z m-2368
-270 c-2 -219 -1 -226 33 -393 19 -93 34 -171 32 -173 -1 -1 -49 25 -107 58
l-105 60 -16 92 c-34 193 -35 186 22 363 53 165 62 183 96 203 47 27 47 26 45
-210z m3403 196 c19 -19 41 -72 78 -188 l52 -161 -12 -95 c-6 -52 -17 -119
-24 -149 l-12 -54 -104 -64 c-57 -35 -106 -62 -108 -60 -2 2 13 85 33 183 36
177 36 182 34 397 -2 209 -1 217 18 217 11 0 31 -12 45 -26z m-1293 -499 l0
-155 -442 2 c-436 3 -443 3 -442 23 1 11 2 80 2 153 l2 132 440 0 440 0 0
-155z m-1891 -245 c26 -89 41 -143 41 -153 0 -5 -13 2 -29 15 -15 12 -36 28
-44 33 -13 8 -57 175 -57 217 0 5 16 -4 35 -19 28 -22 40 -43 54 -93z m2991
106 c0 -2 -9 -48 -20 -101 -11 -53 -20 -98 -20 -100 0 -6 -82 -56 -86 -52 -2
2 9 49 24 104 22 79 35 107 58 127 26 23 44 32 44 22z m-2873 -82 c22 -6 49
-61 99 -206 25 -74 24 -75 -38 -58 -32 9 -39 17 -52 58 -19 57 -56 194 -56
204 0 9 17 10 47 2z m2708 -21 c-3 -16 -20 -75 -38 -133 l-33 -104 -39 -8
c-21 -5 -40 -6 -43 -3 -3 2 17 61 43 131 35 90 55 128 69 134 39 16 48 12 41
-17z m-2567 -54 c7 -40 11 -73 9 -75 -1 -2 -15 31 -29 72 -25 67 -25 74 -10
74 14 0 20 -15 30 -71z m548 15 c119 -117 252 -195 400 -236 109 -30 375 -32
474 -4 154 45 304 132 410 240 l54 56 198 0 c109 0 198 -3 198 -7 0 -5 -14
-74 -31 -154 l-32 -146 -63 -23 c-141 -49 -263 -144 -395 -306 -107 -132 -104
-129 -182 -191 -68 -54 -146 -153 -187 -239 -52 -108 -60 -163 -60 -441 0
-139 -3 -254 -7 -254 -5 -1 -68 -3 -140 -5 l-133 -3 0 253 c0 219 -3 263 -20
330 -37 145 -128 286 -242 374 -34 26 -65 52 -69 57 -5 6 -44 55 -87 110 -44
55 -97 116 -118 135 -98 89 -217 162 -310 190 l-42 12 -31 144 c-17 79 -31
148 -31 154 0 6 67 10 194 10 l194 0 58 -56z m1875 34 c-11 -40 -54 -149 -56
-146 -1 2 5 40 14 85 12 64 20 83 33 83 12 0 15 -5 9 -22z m-3069 -31 c46 -23
173 -101 283 -173 263 -172 255 -168 345 -169 86 -1 123 -12 235 -67 136 -67
251 -166 312 -268 20 -33 45 -108 58 -173 8 -39 49 -35 53 6 2 15 7 27 11 27
16 0 127 -104 164 -154 99 -129 110 -181 111 -491 l1 -250 -365 0 -365 0 -1
125 c-1 143 -10 184 -67 295 -37 74 -62 102 -315 355 l-275 274 -29 94 c-16
52 -28 95 -26 97 7 7 210 -175 247 -222 34 -43 165 -163 232 -212 16 -11 20
-11 25 4 5 11 -6 30 -34 58 -22 23 -57 76 -77 117 -21 41 -53 96 -71 122 -37
49 -164 163 -329 293 -140 110 -180 147 -177 163 2 8 -1 11 -7 7 -14 -8 -171
111 -171 130 0 27 50 55 101 55 37 0 67 -10 131 -43z m3876 23 c17 -11 32 -26
32 -33 0 -18 -151 -139 -166 -133 -6 2 -11 -3 -10 -12 0 -9 -75 -78 -190 -171
-106 -86 -205 -167 -220 -181 -67 -59 -129 -140 -165 -215 -22 -46 -56 -98
-79 -120 -36 -35 -53 -75 -32 -75 5 0 48 30 96 66 57 43 105 89 137 133 32 44
84 95 150 147 55 43 104 80 109 82 5 2 -4 -37 -20 -87 l-28 -90 -218 -213
c-253 -248 -328 -333 -377 -426 -51 -96 -60 -141 -61 -282 l-1 -125 -368 -3
-369 -2 4 262 c5 285 11 318 73 424 33 56 118 148 171 185 l43 29 3 -27 c4
-41 45 -45 54 -6 31 140 67 207 154 292 132 129 306 212 446 215 l81 2 239
151 c132 82 265 165 297 183 94 53 162 62 215 30z m-1638 -49 c-191 -120 -456
-144 -676 -62 -52 20 -164 79 -164 87 0 2 199 4 443 4 l442 0 -45 -29z"/>
<path d="M1089 4283 c-13 -15 -12 -15 11 -3 34 17 36 20 18 20 -9 0 -22 -7
-29 -17z"/>
<path d="M3436 4284 c-10 -27 -7 -43 13 -54 36 -19 68 11 56 51 -8 24 -60 26
-69 3z"/>
<path d="M3582 4288 c-33 -33 17 -88 53 -58 25 21 15 64 -15 68 -14 2 -31 -3
-38 -10z"/>
<path d="M830 3880 l0 -100 35 0 c33 0 35 2 35 35 0 33 2 35 35 35 33 0 35 -2
35 -35 0 -33 2 -35 35 -35 l35 0 0 100 0 100 -35 0 c-33 0 -35 -2 -35 -35 0
-33 -2 -35 -35 -35 -33 0 -35 2 -35 35 0 33 -2 35 -35 35 l-35 0 0 -100z"/>
<path d="M1090 3880 l0 -100 35 0 c33 0 35 2 35 35 0 33 2 35 35 35 33 0 35
-2 35 -35 0 -32 2 -35 30 -35 l30 0 0 100 0 100 -30 0 c-28 0 -30 -3 -30 -35
0 -33 -2 -35 -35 -35 -33 0 -35 2 -35 35 0 33 -2 35 -35 35 l-35 0 0 -100z"/>
<path d="M3128 3894 c-22 -47 -3 -59 97 -59 77 0 89 2 100 20 9 13 10 28 4 43
-8 21 -14 22 -99 22 -87 0 -91 -1 -102 -26z"/>
<path d="M3482 3908 c-7 -7 -12 -21 -12 -33 0 -37 20 -45 107 -45 71 0 84 3
93 19 7 13 7 28 0 45 -9 25 -13 26 -93 26 -51 0 -88 -5 -95 -12z"/>
<path d="M2567 2129 c-21 -12 -22 -42 -3 -58 20 -16 56 3 56 29 0 25 -30 41
-53 29z"/>
<path d="M2465 2109 c-10 -32 16 -55 44 -39 32 16 24 54 -11 58 -20 2 -28 -2
-33 -19z"/>
<path d="M616 144 c-19 -18 -21 -65 -4 -82 7 -7 35 -12 63 -12 73 0 103 37 75
91 -14 25 -110 28 -134 3z"/>
</g>
</svg>
